<svg xmlns="http://www.w3.org/2000/svg" viewBox="0 0 64 64"><defs>
  <linearGradient id="mtl" x1="0" y1="0" x2="0" y2="1">
    <stop offset="0" stop-color="#f0eefb"/><stop offset="0.55" stop-color="#b7b0dc"/><stop offset="1" stop-color="#7d74ab"/>
  </linearGradient>
  <linearGradient id="mtlD" x1="0" y1="0" x2="0" y2="1">
    <stop offset="0" stop-color="#9c94c6"/><stop offset="1" stop-color="#5a5384"/>
  </linearGradient>
  <linearGradient id="pur" x1="0" y1="0" x2="0" y2="1">
    <stop offset="0" stop-color="#c3a7f8"/><stop offset="1" stop-color="#7452cf"/>
  </linearGradient>
  <linearGradient id="purD" x1="0" y1="0" x2="0" y2="1">
    <stop offset="0" stop-color="#8f74d2"/><stop offset="1" stop-color="#523b96"/>
  </linearGradient>
  <linearGradient id="grn" x1="0" y1="0" x2="0" y2="1">
    <stop offset="0" stop-color="#9df3c0"/><stop offset="1" stop-color="#359e67"/>
  </linearGradient>
  <linearGradient id="grnD" x1="0" y1="0" x2="0" y2="1">
    <stop offset="0" stop-color="#57c48b"/><stop offset="1" stop-color="#1e7a4c"/>
  </linearGradient>
  <linearGradient id="navy" x1="0" y1="0" x2="0" y2="1">
    <stop offset="0" stop-color="#575f8a"/><stop offset="1" stop-color="#2c3052"/>
  </linearGradient>
  <filter id="sh" x="-40%" y="-40%" width="180%" height="180%">
    <feGaussianBlur stdDeviation="1.6"/>
  </filter>
</defs><ellipse cx="30" cy="59" rx="12" ry="3" fill="#000" opacity="0.25" filter="url(#sh)"/>
  <rect x="18" y="7" width="28" height="46" rx="6" fill="url(#mtl)"/>
  <rect x="21.5" y="12" width="21" height="34" rx="2.5" fill="url(#navy)"/>
  <rect x="24" y="15" width="10" height="2" rx="1" fill="#a99ee6" opacity="0.9"/>
  <rect x="24" y="20" width="16" height="2" rx="1" fill="#7a72ae" opacity="0.8"/>
  <circle cx="32" cy="50" r="2.2" fill="#57507e"/>
  <ellipse cx="28" cy="9.5" rx="6" ry="1.2" fill="#fff" opacity="0.5"/>
</svg>